<?xml version="1.0" encoding="utf-8"?>
<!-- Svg Vector Icons : http://www.onlinewebfonts.com/icon -->
<!DOCTYPE svg PUBLIC "-//W3C//DTD SVG 1.1//EN" "http://www.w3.org/Graphics/SVG/1.1/DTD/svg11.dtd">
<svg version="1.1" xmlns="http://www.w3.org/2000/svg" xmlns:xlink="http://www.w3.org/1999/xlink" x="0px" y="0px" viewBox="0 0 1000 1000" enable-background="new 0 0 1000 1000" xml:space="preserve">
<metadata> Svg Vector Icons : http://www.onlinewebfonts.com/icon </metadata>
<g><path d="M974.7,469.2c-29.7-72-85.7-108.5-166.6-108.5c0,0-53.1,0-97,0c16.4-37.1,34.7-90.8,34.7-155.6c0-17.7-1.4-36.2-4.8-54.9C728.3,74.9,676.9,34.8,603.9,42.9c-28.9,3.3-38.9,30.8-62.8,97.4c-19.9,55.2-47.1,130.8-86.7,191.5c-29.1,44.7-80.8,79.9-124.3,101.6v-5.5H10v475.5h320.1v-26.2c50.4-2.5,79-1,85.8,1.1l57.3,33.3l42.8,26.7c41.6,22.4,223.5,24.6,301.5,13c100.3-14.6,124.5-96.9,125.5-100.4C951,823.6,1020,579,974.7,469.2z M882.6,833.6c-0.6,1.8-15.2,46.9-74.2,55.3c-83.9,12.5-239.6,4.9-262.7-6.1c0.2,0.1-38-23.8-38-23.8l-72-40.4c-16.7-5.6-54.5-6.2-105.6-4V501.4c51.6-20.9,131.4-65.7,177-135.3c43.6-66.9,72.3-146.4,93.2-204.6c0,0,18.5-46,22.9-56.6c31.9,0.2,49.5,17.7,56,55.7c2.6,14.9,3.6,29.6,3.6,43.9c0,94.2-48.4,169.3-49.1,170.2l-31.9,48.7l206.3,0.1c55.2,0,88.6,21.5,108.5,69.7C947.9,569,902.5,764.7,882.6,833.6z"/></g>
</svg>