<?xml version="1.0" encoding="utf-8"?>
<!-- Generator: Adobe Illustrator 21.0.2, SVG Export Plug-In . SVG Version: 6.00 Build 0)  -->
<svg version="1.1" id="Layer_1" xmlns="http://www.w3.org/2000/svg" xmlns:xlink="http://www.w3.org/1999/xlink" x="0px" y="0px"
	 viewBox="0 0 256 256" style="enable-background:new 0 0 256 256;" xml:space="preserve">
<style type="text/css">
	.st0{fill:#2F8ACA;}
	.st1{fill:#2E8AC9;}
</style>
<g>
	<path class="st0" d="M246.8,133.7c-2.6,3-5.2,5.9-7.8,9c-3.3,3.7-5.5,3.9-9.2,0.8c-32.4-27-64.9-54-97.2-81.2
		c-3.3-2.7-5.3-3.3-9-0.3c-32.1,27.1-64.5,54-96.9,80.9c-4.6,3.9-6.6,3.6-10.6-1c-2.3-2.6-4.6-5.3-7.1-7.9c-0.2-0.3-2-2.3-1.5-5
		c0.3-1.7,1.4-2.7,1.8-3.1c0.5-0.5,1.2-1.1,2.2-2C38.9,101,66,78,93.7,55.5c10.2-8.3,18.7-19,31.8-23.3c0.5-0.2,1.2-0.5,2.4-0.4
		c1.1,0,1.9,0.4,2.4,0.7c2.4,0.8,17.6,11.1,21.7,14.4c5.8,4.9,11.8,9.8,18,15c2.2,1.8,5.4,0.3,5.4-2.5c0-5.9,0-11.4,0-17
		c0-8.6,0.9-9.5,9.3-9.5c7.3,0,14.4,0,21.7,0c6.6,0,7.7,1,7.7,7.6c0,18.3-0.4,54.9-0.4,54.9s-0.1,1.9,0.4,3.5c0,0,0.4,1.2,1.2,2.3
		c2.6,3.5,25.7,19.6,31,24.8c0.8,0.8,2.2,2.4,2.2,4.2C248.3,132.2,247,133.5,246.8,133.7z"/>
	<path class="st1" d="M146.7,223.9c0-19.3,0-37.8,0-56.6c-12.5,0-24.9,0-37.6,0c0,18.7,0,37.3,0,56.3c-1.7,0.1-3.1,0.3-4.4,0.3
		c-17.4,0-34.9,0-52.3,0c-6.9,0-10.5-3.4-10.5-10.4c-0.1-22.8-0.1-45.5,0.1-68.3c0-1.6,0.7-3.9,1.9-4.8c27.8-23.1,55.6-46,84-69.3
		c6.8,5.6,13.6,11,20.3,16.6c20.9,17.2,41.9,34.5,62.8,51.9c1.6,1.3,2.9,4.1,2.9,6.2c0.2,22.1,0.2,44.3,0.1,66.4
		c0,8.6-3.1,11.7-11.5,11.7c-16.7,0-33.3,0-49.9,0C150.8,223.9,149.1,223.9,146.7,223.9z"/>
</g>
</svg>
