<?xml version="1.0" encoding="utf-8"?>
<!-- Svg Vector Icons : http://www.onlinewebfonts.com/icon -->
<!DOCTYPE svg PUBLIC "-//W3C//DTD SVG 1.1//EN" "http://www.w3.org/Graphics/SVG/1.1/DTD/svg11.dtd">
<svg version="1.1" xmlns="http://www.w3.org/2000/svg" xmlns:xlink="http://www.w3.org/1999/xlink" x="0px" y="0px" viewBox="0 0 1000 1000" enable-background="new 0 0 1000 1000" xml:space="preserve">
<metadata> Svg Vector Icons : http://www.onlinewebfonts.com/icon </metadata>
<g><path d="M42.3,799C22.4,788.3,10,767.6,10,745V255c0-22.6,12.5-43.4,32.4-54c19.9-10.7,44-9.4,62.8,3.1l367.5,245c17,11.4,27.3,30.4,27.3,51c0,20.5-10.2,39.6-27.3,51L105.2,796C86.4,808.5,62.2,809.7,42.3,799z M532.3,799c-19.9-10.7-32.3-31.4-32.3-54V500V255c0-22.6,12.5-43.4,32.4-54c19.9-10.7,44-9.4,62.8,3.1l367.5,245c17,11.4,27.3,30.4,27.3,51c0,20.5-10.2,39.6-27.3,51L595.2,796C576.4,808.5,552.2,809.7,532.3,799z"/></g>
</svg>