<?xml version="1.0" encoding="utf-8"?>
<!-- Svg Vector Icons : http://www.onlinewebfonts.com/icon -->
<!DOCTYPE svg PUBLIC "-//W3C//DTD SVG 1.1//EN" "http://www.w3.org/Graphics/SVG/1.1/DTD/svg11.dtd">
<svg version="1.1" xmlns="http://www.w3.org/2000/svg" xmlns:xlink="http://www.w3.org/1999/xlink" x="0px" y="0px" viewBox="0 0 1000 1000" enable-background="new 0 0 1000 1000" xml:space="preserve">
<metadata> Svg Vector Icons : http://www.onlinewebfonts.com/icon </metadata>
<g><path d="M431.6,566.3L283.1,417.9l-38.5,38.5l186.9,186.9l323.7-323.7L716.9,281L431.6,566.3z"/><path d="M966,128.6l-1.2-10.8l-10.9,0.4c-11.7,0.4-23.5,0.6-35,0.6c-224.3,0-367-76.8-405.5-100.3c-2.6-1.6-5.2-3.2-7-4.4l-6.3-4l-6.3,4c-1.2,0.8-2.7,1.7-4.3,2.7l-2.7,1.7C448.2,41.9,305.3,118.7,81.2,118.7c0,0,0,0,0,0c-11.6,0-23.3-0.2-35-0.6l-10.9-0.4L34,128.6c-0.7,6.4-17.4,158,30.1,340.5C92,576.5,136.6,672,196.4,752.9c74.9,101.3,174.1,179.7,295,233.2c0.5,0.2,1,0.5,1.5,0.7c0.8,0.4,1.6,0.8,2.5,1.2l4.7,2l4.7-2c0.9-0.4,1.7-0.8,2.6-1.2c0.4-0.2,0.9-0.4,1.5-0.7c120.7-53.4,219.9-131.9,294.9-233.2C863.5,672,908,576.5,935.9,469.1C983.4,286.5,966.7,134.9,966,128.6z M853.3,519.2c-63.2,183.7-182,317.2-353.3,396.9c-171.2-79.7-290.1-213.2-353.2-396.9C98.3,378.3,96.6,244.7,99,184c200.3-0.8,335.1-59,401-96.2c65.8,37.2,200.5,95.4,401,96.2C903.5,244.8,901.7,378.4,853.3,519.2z"/></g>
</svg>